<svg width="100" height="100" viewBox="0 0 100 100" xmlns="http://www.w3.org/2000/svg">
  <title>
    choose
  </title>
  <path d="M50.5 13C29.81 13 13 29.81 13 50.5S29.81 88 50.5 88 88 71.19 88 50.5 71.19 13 50.5 13zm0 3.41c18.848 0 34.09 15.242 34.09 34.09 0 18.848-15.242 34.09-34.09 34.09-18.848 0-34.09-15.242-34.09-34.09 0-18.848 15.242-34.09 34.09-34.09zm18.59 17.87c-.447.045-.86.265-1.145.613L44.4 62.513 32.923 51.804c-.685-.642-1.76-.61-2.405.072-.645.682-.618 1.757.06 2.405l12.785 11.932c.34.324.8.493 1.267.468.468-.026.906-.243 1.21-.6L70.554 37.1c.467-.527.56-1.287.236-1.913-.324-.626-1-.987-1.7-.91z" fill-rule="nonzero" fill="#000"/>
</svg>
