<svg width="100" height="100" viewBox="0 0 100 100" xmlns="http://www.w3.org/2000/svg">
  <title>
    repeat
  </title>
  <g fill-rule="nonzero" fill="#000">
    <path d="M17.593 38.288c.296.018.58-.046.837-.182l8.65-2.912c.857-.29 1.32-1.226 1.037-2.094-.285-.867-1.214-1.33-2.07-1.05l-5.162 1.74c7.382-13.517 23.122-20.453 38.174-16.27 16.305 4.524 26.76 20.684 24.317 37.585-.13.903.487 1.744 1.38 1.877.082.013.162.018.24.018.797 0 1.497-.59 1.615-1.415 2.683-18.553-8.79-36.29-26.688-41.256-16.58-4.605-33.928 3.078-41.994 18.027l-1.74-5.297c-.285-.867-1.21-1.333-2.07-1.05-.856.29-1.32 1.227-1.036 2.094l2.976 9.058c.228.684.856 1.118 1.533 1.126zM87.916 71.92l-2.972-9.057c-.17-.513-.57-.86-1.04-1.02-.02-.01-.034-.028-.052-.035-.078-.033-.16-.026-.238-.044-.04-.007-.078-.022-.12-.025-.424-.072-.836.024-1.18.264l-8.376 2.822c-.856.29-1.32 1.224-1.036 2.093.286.866 1.21 1.33 2.066 1.048l5.026-1.69c-7.388 13.463-23.078 20.365-38.086 16.2C25.62 77.95 15.18 61.793 17.62 44.895c.13-.903-.487-1.744-1.38-1.877-.894-.135-1.723.492-1.852 1.4-2.68 18.55 8.78 36.283 26.654 41.253 3.234.9 6.498 1.33 9.717 1.33 13.3 0 25.807-7.372 32.274-19.455l1.78 5.42c.23.695.866 1.134 1.55 1.134.17 0 .345-.03.515-.086.857-.29 1.32-1.228 1.036-2.095z"/>
  </g>
</svg>
