<svg width="100" height="100" viewBox="0 0 100 100" xmlns="http://www.w3.org/2000/svg">
  <title>
    toys
  </title>
  <g transform="translate(4 8)" fill-rule="nonzero" fill="#000">
    <circle transform="rotate(-20.34 32 21)" cx="32" cy="21" r="1"/>
    <path d="M91.975 55.573c-.4-1.137-1.42-1.956-2.638-2.115-1.028-.28-2.107-.33-3.157-.148-.263.063-.517.155-.757.275 0-1.07-.128-2.133-.38-3.173h.455c.54 0 1.072-.118 1.557-.35 1.374-.666 4.077-3.268 3.05-5.288-1.028-2.02-4.79-1.566-6.175-.9-.592.287-1.09.73-1.438 1.28-.58-.74-1.236-1.42-1.957-2.03.53-.238.99-.602 1.34-1.058.58-.88.95-1.88 1.082-2.92.3-1.16-.093-2.387-1.016-3.172-1.924-1.312-4.962.91-5.85 2.115-.064.084-.096.18-.15.263l-.757-2.993c.185.038.373.06.562.064.342-.003.682-.06 1.006-.17 1.255-.423 3.85-2.38 3.18-4.284-.67-1.903-3.947-1.903-5.2-1.48-.34.115-.654.287-.93.507l-.92-3.628c.626.313 1.345.403 2.032.253 1.244-.328 4.023-2.01 3.59-3.913-.332-1-1.21-1.73-2.27-1.894-.878-.253-1.803-.304-2.704-.148-.35.077-.682.213-.984.402-.136-.41-.317-.803-.54-1.174.597-.134 1.14-.44 1.557-.878 1.082-1.058 2.163-3.914.714-5.183-1.45-1.27-4.325.148-5.233 1.058-.508.54-.797 1.244-.81 1.978-.377-.143-.764-.263-1.157-.36.344-.54.503-1.173.454-1.807-.108-1.28-1.384-4.23-3.417-4.02-1.054.19-1.91.942-2.216 1.946-.366.804-.54 1.68-.51 2.56.045.49.212.962.488 1.374-4.952 1.206-8.186 5.342-7.202 9.234.8 3.173 4.163 5.225 8.078 5.225h.4c-.683 1.76-1.19 3.58-1.514 5.437l-2.422-1.682-3.936-2.115c-.338-.19-.753-.187-1.09.005-.336.19-.542.544-.54.925 0 .38.21.732.55.92l1.675.9-1.08.338c-.38.108-.672.41-.76.787-.086.378.046.772.344 1.027.298.255.714.33 1.086.197l2.93-.94 2.887 2c-.12 1.057-.205 2.167-.216 3.288l-1.59-.72-4.324-1.342c-.57-.175-1.178.135-1.357.693-.18.557.137 1.15.707 1.326l1.817.56-.995.54c-.34.19-.548.54-.55.92-.002.382.205.735.54.926.337.192.753.194 1.09.005l2.715-1.48 2.043.898c0 .878.098 1.756.206 2.645.67 5.944 1.676 10.048 3.244 13.274l-1.503 2.338h-1.47c-.598 0-1.082.473-1.082 1.058v10.577H57.31V63.75c0-.585-.485-1.058-1.082-1.058h-1.082v-13.58c0-6.348-5.18-11.7-11.332-11.795-.266-.012-.36-.012-.454 0-.508.055-1.01.15-1.503.285l-3.244-15.03c-.03-.113-.076-.22-.14-.317.022-.247.022-.494 0-.74 1.495.01 2.76-.772 3.352-2 .648-1.364 1.08-5.045-1.028-6.018-2.108-.973-4.736 1.713-5.406 3.067-.09.19-.162.39-.215.592-.176-.112-.36-.21-.552-.296l-1.19-3.173c.197-.897-.13-1.72-.848-2.036-.72-.314-1.564-.005-1.894.695-.33.7-.023 1.53.69 1.86-.006.05.253.81.778 2.285-1.03.148-1.966.664-2.628 1.45l-4.4 5.288c-1.64 1.75-1.58 4.45.135 6.13 1.715 1.677 4.478 1.735 6.266.132l.368-.297 2.412 12.693c-1.817 1.997-2.862 4.553-2.952 7.225v13.582c-.598 0-1.082.473-1.082 1.058v10.577h-3.244V63.75c0-.585-.484-1.058-1.08-1.058H14.37c1.536-3.364 2.347-8.346 2.758-16.924 1.702-3.18 1.702-6.974 0-10.154.01-.084.01-.17 0-.254-.134-2.844-.496-5.673-1.082-8.462.986-.35 1.648-1.26 1.666-2.285-.09-.8-.503-1.53-1.147-2.03 4.034-1.48 6.953-5.86 6.953-11.022C23.518 5.216 19.063 0 13.58 0 8.1 0 3.645 5.183 3.645 11.56c0 5.47 3.244 10.06 7.688 11.245-.528.468-.856 1.114-.92 1.808 0 1.524 1.44 2.592 3.515 2.634.39 1.9.67 3.748.844 5.606-1.29-1.042-2.91-1.617-4.584-1.63-4.52 0-8.196 4.232-8.196 9.52 0 4.338 2.508 7.987 5.925 9.14-.774.515-1.292 1.325-1.427 2.232 0 .444.205 1.237 1.59 1.618.396.103.8.17 1.21.2-.06.538-.092 1.08-.097 1.62 0 2.993.282 4.928 1.796 7.15H1.08c-.596 0-1.08.473-1.08 1.057v14.798c0 .584.484 1.058 1.08 1.058h1.277c0 2.46 1.968 4.384 4.396 4.384 2.427 0 4.395-1.925 4.395-4.3l3.125-.084c0 2.46 1.968 4.384 4.396 4.384 2.426 0 4.394-1.925 4.394-4.3l2.887-.084c.598 0 1.082-.474 1.082-1.058v-2.116h3.244v2.116c0 .584.484 1.058 1.082 1.058h1.276c0 2.46 1.968 4.384 4.395 4.384 2.427 0 4.395-1.925 4.395-4.3l3.125-.084c0 2.46 1.967 4.384 4.395 4.384 2.428 0 4.395-1.925 4.395-4.3l2.888-.084c.597 0 1.08-.474 1.08-1.058v-2.116h3.245v2.116c0 .584.484 1.058 1.08 1.058h1.418c0 2.46 1.968 4.384 4.396 4.384s4.395-1.925 4.395-4.3l3.126-.084c0 2.46 1.968 4.384 4.396 4.384 2.427 0 4.395-1.925 4.395-4.3l2.747-.084c.597 0 1.08-.474 1.08-1.058V63.75c0-.585-.483-1.058-1.08-1.058h-1.08v-2.888c.724.36 1.554.456 2.345.275 1.026-.282 1.976-.784 2.778-1.47 1.026-.666 1.58-1.842 1.427-3.037zm-7.104-9.815c.606-.252 1.258-.374 1.915-.36.474-.054.953.046 1.362.286.13.412-.994 1.988-2.054 2.496-.687.326-1.514.047-1.85-.624-.16-.32-.182-.69-.064-1.026.108-.34.36-.617.69-.772zM76.32 31.32c.522-.028 1.043.074 1.514.296-.407.715-1.046 1.278-1.817 1.597-.24.08-.502.064-.73-.045-.226-.11-.4-.302-.48-.537-.087-.234-.072-.494.04-.72.112-.224.312-.395.554-.474.297-.085.607-.124.918-.116zM11.516 53.87c1.492-.21 2.314-.814 2.314-1.755-.122-.898-.62-1.707-1.373-2.232.853-.288 1.647-.722 2.346-1.28-.303 4.802-.865 9.393-2.163 12.62-1.08-1.662-1.243-3.175-1.243-5.68.005-.56.045-1.118.12-1.673zm-5.7-42.31c0-5.203 3.494-9.445 7.776-9.445s7.774 4.23 7.774 9.446c0 5.216-3.492 9.447-7.774 9.447s-7.775-4.242-7.775-9.446zm6.75 13.128c.395-.542.904-.996 1.49-1.333.575.324 1.08.75 1.493 1.258-.066.212-.64.487-1.482.487-.844 0-1.492-.275-1.492-.412h-.01zM4.14 40.744c0-4.083 2.705-7.404 6.035-7.404s6.034 3.32 6.034 7.404c0 4.083-2.705 7.404-6.035 7.404s-6.034-3.32-6.034-7.404zm6.035 10.112c.417.272.807.58 1.168.92-.775.11-1.56.11-2.336 0 .364-.34.76-.648 1.18-.92h-.012zM4.68 80.546c-.346-.815-.156-1.753.48-2.376.638-.623 1.597-.81 2.43-.472.83.337 1.374 1.132 1.374 2.013 0 1.204-.997 2.18-2.228 2.18-.9 0-1.713-.53-2.057-1.345zm13.95 1.344c-1.23 0-2.227-.976-2.227-2.18 0-1.203.998-2.178 2.228-2.178 1.23 0 2.228.975 2.228 2.18 0 1.202-.997 2.178-2.227 2.178zm6.24-4.39h-2.163c-.1.005-.197.022-.292.053-.752-1.352-2.195-2.198-3.768-2.21-1.574-.01-3.03.816-3.8 2.157h-4.034c-.1.005-.198.022-.292.053-.75-1.352-2.194-2.198-3.768-2.21-1.573-.01-3.03.816-3.8 2.157h-.79V64.807H24.87V77.5zm12.38-60.037c.515-.98 1.387-1.735 2.444-2.115h.065c.367.243.497 2.115 0 3.173-.21.44-.645.734-1.138.775-.494.04-.972-.18-1.254-.576-.283-.4-.328-.914-.117-1.352v.095zm-7.19 10.45l-.086.075c-.936.87-2.406.87-3.342 0-.92-.904-.92-2.365 0-3.27l.076-.105 4.433-5.288c.364-.443.903-.713 1.483-.74h.108c.54-.002 1.058.207 1.44.58l1.513 1.45c.408.4.625.95.596 1.514-.03.563-.3 1.09-.75 1.447l-5.47 4.337zm3.45 21.155c.075-2.147.908-4.202 2.357-5.817.45-.2.705-.675.616-1.152l-2.736-14.385 3.136-2.486 3.125 14.195c.118.525.62.88 1.168.825.29-.03.554-.17.735-.392.573-.245 1.184-.392 1.807-.433 5.028 0 9.267 4.463 9.267 9.69v13.58h-4.326v-4.527c-.024-2.615-2.083-4.78-4.746-4.993h-.487c-2.62.224-4.6 2.42-4.498 4.993v4.527H33.52l-.01-13.624zm7.58 13.624v-4.527C41 56.68 42.146 55.4 43.662 55.288c1.567.088 2.802 1.34 2.833 2.877v4.527H41.09zM37.012 81.89c-1.23 0-2.228-.976-2.228-2.18 0-1.203.998-2.178 2.228-2.178 1.23 0 2.227.975 2.227 2.18 0 1.202-.997 2.178-2.227 2.178zm11.894 0c-1.23 0-2.227-.976-2.227-2.18 0-1.203.997-2.178 2.227-2.178s2.228.975 2.228 2.18c0 .577-.235 1.13-.653 1.54-.418.408-.984.638-1.575.638zm6.24-4.39h-2.163c-.1.005-.198.022-.292.053-.752-1.352-2.195-2.198-3.77-2.21-1.572-.01-3.028.816-3.8 2.157H41.09c-.1.005-.198.022-.293.053-.75-1.352-2.195-2.198-3.768-2.21-1.575-.01-3.03.816-3.802 2.157h-.79V64.807h22.708V77.5zm22.707-38.258c.676-.835 1.627-1.414 2.692-1.64.046-.01.094-.01.14 0 .325.297.12 2.21-.562 3.174-.456.547-1.265.66-1.86.26-.593-.403-.772-1.183-.41-1.794zm-4.326-16.11c.133-.202.343-.343.584-.39.15-.016.303-.016.454 0 .656-.014 1.302.146 1.87.465-.478.64-1.158 1.107-1.935 1.332-.49.098-.972-.208-1.08-.688-.092-.234-.08-.494.033-.72h.075zm-2.79-6.78c.58-.52 1.308-.855 2.087-.962h.076c-.018.794-.303 1.56-.81 2.18-.224.235-.56.336-.88.265-.322-.072-.58-.306-.677-.614-.097-.307-.02-.642.206-.878v.01zm-6.347-3.51c.583.552.962 1.277 1.083 2.06.02.24-.057.477-.215.66-.158.182-.385.296-.63.315-.242.017-.482-.06-.67-.212-.187-.154-.303-.375-.324-.613-.025-.79.215-1.566.682-2.21h.075zm-7.568 12.47c-.692-2.76 1.838-5.765 5.645-6.685.732-.176 1.484-.265 2.238-.265 2.92 0 5.406 1.407 5.936 3.618.292 1.4-.11 2.855-1.08 3.924-1.18 1.386-2.796 2.353-4.596 2.75-3.795.93-7.47-.57-8.163-3.342h.022zm12.597 31.31c.75-1.096 1.917-1.853 3.24-2.103 1.324-.25 2.695.026 3.81.768.824.55 1.392 1.4 1.576 2.36.185.96-.028 1.953-.593 2.76l-1.373 1.967c-.053.085-.093.178-.12.275H65.636l3.784-6.03zM67.44 81.89c-1.23 0-2.227-.976-2.227-2.18 0-1.203.997-2.178 2.228-2.178 1.23 0 2.228.975 2.228 2.18 0 1.202-.997 2.178-2.227 2.178zm11.895 0c-1.23 0-2.228-.976-2.228-2.18 0-1.203.998-2.178 2.228-2.178 1.23 0 2.227.975 2.227 2.18 0 .577-.234 1.13-.652 1.54-.418.408-.984.638-1.575.638zm6.088-4.39H83.26c-.054-.004-.108-.004-.162 0-.762-1.347-2.21-2.182-3.785-2.182-1.573 0-3.023.835-3.784 2.182h-4.164c-.054-.004-.11-.004-.162 0-.762-1.347-2.212-2.182-3.785-2.182-1.574 0-3.024.835-3.786 2.182h-.92V64.807h22.71V77.5zm-6.92-14.808l.735-1.058c1.843-2.644 1.15-6.25-1.547-8.06-1.59-1.065-3.548-1.464-5.44-1.108-1.894.356-3.562 1.436-4.636 3.002l-1.655 2.686c-1.344-3.65-2.187-7.46-2.51-11.328-.252-2.202-.3-4.422-.14-6.632l1.298.9c.466.21 1.02.07 1.325-.335.305-.407.275-.966-.07-1.338l-2.283-1.608c.352-2.463 1.055-4.867 2.087-7.14 2.032-.498 3.868-1.573 5.277-3.088l3.31 13.03v.117l.464 1.206c.112.284.344.508.638.613 4.768 1.66 7.94 6.09 7.904 11.042v9.097h-4.758zm8.78-4.675c-.747.166-1.49-.29-1.66-1.02-.17-.73.297-1.458 1.043-1.625 1.146-.253 3.05.275 3.244.667.195.39-1.47 1.723-2.628 1.977z"/>
    <circle cx="62" cy="21" r="1"/>
    <circle cx="65" cy="22" r="1"/>
    <path d="M66.835 25.48c-.11-.105-.266-.17-.434-.18-.167-.01-.333.036-.46.13-1.134.587-2.542.684-3.78.26-1.574-.43-2.784-1.36-2.897-2.217-.022-.187-.163-.35-.37-.426-.206-.078-.446-.058-.63.052-.183.108-.282.29-.26.478.433 1.56 1.9 2.777 3.78 3.137.688.185 1.406.28 2.13.282 1.025.034 2.034-.232 2.847-.753.137-.09.224-.223.238-.368.014-.145-.045-.288-.163-.395z"/>
  </g>
</svg>
